<svg data-v-423bf9ae="" xmlns="http://www.w3.org/2000/svg" viewBox="0 0 60.00000530802045 60" class="font"><!----><!----><defs data-v-423bf9ae=""><linearGradient data-v-423bf9ae="" gradientTransform="rotate(25)" id="65d6f537-4dec-4391-8596-931e15ae8daa" x1="0%" y1="0%" x2="100%" y2="0%"><stop data-v-423bf9ae="" offset="0%" style="stop-color: rgb(255, 0, 0); stop-opacity: 1;"></stop><stop data-v-423bf9ae="" offset="100%" style="stop-color: rgb(103, 10, 198); stop-opacity: 1;"></stop></linearGradient></defs><g data-v-423bf9ae="" id="ce914de7-f163-4377-8a70-917f8fd8d7bf" fill="url(#65d6f537-4dec-4391-8596-931e15ae8daa)" transform="matrix(5.5658628465905124,0,0,5.5658628465905124,-3.6178104250893597,-10.909091868475379)"><path d="M6.04 12.74C9.03 12.74 11.43 10.33 11.43 7.35C11.43 4.38 9.03 1.96 6.04 1.96C3.06 1.96 0.65 4.38 0.65 7.35C0.65 10.33 3.06 12.74 6.04 12.74ZM6.04 10.48C4.27 10.48 2.92 9.12 2.92 7.35C2.92 5.58 4.27 4.22 6.04 4.22C7.82 4.22 9.17 5.58 9.17 7.35C9.17 9.12 7.82 10.48 6.04 10.48Z"></path></g><!----><!----></svg>