<svg data-v-423bf9ae="" xmlns="http://www.w3.org/2000/svg" viewBox="0 0 222.41827345991885 60" class="font"><!----><!----><defs data-v-423bf9ae=""><linearGradient data-v-423bf9ae="" gradientTransform="rotate(25)" id="d7f66107-d8b6-44e6-aa0c-a601276a8909" x1="0%" y1="0%" x2="100%" y2="0%"><stop data-v-423bf9ae="" offset="0%" style="stop-color: rgb(255, 0, 0); stop-opacity: 1;"></stop><stop data-v-423bf9ae="" offset="100%" style="stop-color: rgb(103, 10, 198); stop-opacity: 1;"></stop></linearGradient></defs><g data-v-423bf9ae="" id="c26de023-6dbd-473b-8125-6e69eaece7ef" fill="url(#d7f66107-d8b6-44e6-aa0c-a601276a8909)" transform="matrix(3.7014190862893512,0,0,3.7014190862893512,-2.405921888297428,-2.257866291632176)"><path d="M6.04 12.74C9.03 12.74 11.43 10.33 11.43 7.35C11.43 4.38 9.03 1.96 6.04 1.96C3.06 1.96 0.65 4.38 0.65 7.35C0.65 10.33 3.06 12.74 6.04 12.74ZM6.04 10.48C4.27 10.48 2.92 9.12 2.92 7.35C2.92 5.58 4.27 4.22 6.04 4.22C7.82 4.22 9.17 5.58 9.17 7.35C9.17 9.12 7.82 10.48 6.04 10.48ZM17.36 5.46C16.55 5.46 15.86 5.85 15.37 6.46L15.37 5.60L13.13 5.60L13.13 12.60L15.37 12.60L15.37 8.54C15.37 7.91 15.89 7.44 16.54 7.44C17.19 7.44 17.64 7.91 17.64 8.54L17.64 12.60L19.86 12.60L19.86 8.17C19.86 6.63 18.74 5.46 17.36 5.46ZM21.79 12.60L24.03 12.60L24.03 0.61L21.79 0.61ZM30.77 5.60L29.05 10.24L27.30 5.60L24.97 5.60L27.90 12.76L26.25 16.80L28.60 16.80L33.08 5.60ZM34.04 12.60L37.50 12.60C40.39 12.60 42.75 10.26 42.75 7.35C42.75 4.45 40.39 2.10 37.50 2.10L34.04 2.10ZM36.35 10.55L36.35 4.15L37.48 4.15C39.15 4.15 40.44 5.53 40.44 7.35C40.44 9.17 39.15 10.55 37.48 10.55ZM47.85 12.74C50.19 12.74 51.73 11.20 51.73 9.10C51.73 7.00 50.19 5.46 47.85 5.46C45.50 5.46 43.94 7.00 43.94 9.10C43.94 11.20 45.50 12.74 47.85 12.74ZM47.85 10.76C46.88 10.75 46.18 10.05 46.18 9.10C46.18 8.16 46.88 7.46 47.85 7.44C48.79 7.46 49.51 8.16 49.51 9.10C49.51 10.05 48.79 10.75 47.85 10.76ZM60.73 5.60L58.49 5.60L58.49 6.30C57.91 5.78 57.16 5.46 56.30 5.46C54.36 5.46 52.83 7.05 52.83 9.10C52.83 11.13 54.36 12.74 56.30 12.74C57.17 12.74 57.94 12.41 58.52 11.87L58.52 12.79C58.52 14.09 57.80 14.88 56.67 14.88C55.86 14.88 55.25 14.44 54.99 13.74L52.94 14.56C53.52 16.00 54.83 16.82 56.67 16.82C59.22 16.82 60.74 15.26 60.74 12.67ZM56.86 10.76C55.93 10.76 55.20 10.03 55.20 9.10C55.20 8.17 55.93 7.44 56.86 7.44C57.79 7.44 58.54 8.17 58.54 9.10C58.54 10.03 57.79 10.76 56.86 10.76Z"></path></g><!----><!----></svg>